# xmcd
#
# Track frame offsets:
#	150
#	16787
#	36203
#	52464
#	74342
#	105527
#
# Disc length: 3026 seconds
#
# Revision: 0
# Processed by: cddbd v1.5.2PL0 Copyright (c) Steve Scherf et al.
# Submitted via: dBpowerAMP V4.0
#
DISCID=4e0bd006
DTITLE=Beady Eye - News of the World CD
DYEAR=2011
DGENRE=Rock
TTITLE0=Bring The Light
TTITLE1=Four Letter Word
TTITLE2=The Roller
TTITLE3=Sons Of The Stage
TTITLE4=World Outside My Room
TTITLE5=DATA
EXTD=
EXTT0=
EXTT1=
EXTT2=
EXTT3=
EXTT4=
EXTT5=
PLAYORDER=
